<svg xmlns="http://www.w3.org/2000/svg">
  <symbol id="phone" viewBox="0 0 10 10">
    <path d="M9 5a1 1 0 0 1-1-1V3c0-.405.243-.75.59-.907l-.717.063c-.08-.35-.262-.695-.669-.672-.81.045-3.96-.135-4.5.045-.408.136-.55.474-.634 1.136l-.135.012A.982.982 0 0 1 2 3v1a1 1 0 1 1-2 0V3c0-.055.023-.103.032-.156v-.003c.017-.103.041-.2.087-.29C.543 1.221 2.513.262 3.076.121c.604-.15 1.395-.168 2.299-.183.571-.01.46.137 1.517.099C7.949 0 10 1.969 10 1.969l-.805.07A.986.986 0 0 1 10 3v1a1 1 0 0 1-1 1zM.704 8.06c.802-.963 2.146-2.502 3.108-3.21 1.33-.977 2.186-.094 5.342 3.182.436.07.768.41.822.851l.054.056h-.042c0 .021.012.04.012.061a1 1 0 0 1-1 1H1a1 1 0 0 1-1-1c0-.447.299-.812.704-.94zm4.171.527a1.306 1.306 0 1 0 0-2.611 1.306 1.306 0 0 0 0 2.611z" />
  </symbol>
  <symbol id="map" viewBox="0 0 9 13">
    <path d="M7.608 6.645L4.491 12.37 1.286 6.677a3.841 3.841 0 0 1-.377-.668l-.008-.015a3.844 3.844 0 1 1 6.707.651zM4.434 2.691a1.656 1.656 0 1 0 0 3.313 1.656 1.656 0 0 0 0-3.313z" />
  </symbol>
  <symbol id="email" viewBox="0 0 12 8">
    <path d="M4.044 4.407L6.002 5.67l1.983-1.283 3.282 3.602H.79zM-.012 7.093L.002.856l3.301 2.95zM11.268.007L6.043 4.532.879.007zM8.725 3.805L11.978.856l.015 6.126z" />
  </symbol>
</svg>

